# xmcd
#
# Track frame offsets:
#       150
#       6728
#       21100
#       43407
#       62177
#       85826
#       110006
#       126308
#       141865
#       158235
#       176392
#       196885
#       217376
#       244975
#       266827
#       283932
#       300171
#       323393
#
# Disc length: 4515 seconds
#
# Revision: 1
# Processed by: cddbd v1.5.2PL0 Copyright (c) Steve Scherf et al.
# Submitted via: FreeDbEdit v0.1
#
DISCID=1311a112
DTITLE=The Notorious B.I.G. - Born Again
DYEAR=1900
DGENRE=
TTITLE0=Born Again (Intro)
TTITLE1=Notorious B.I.G.
TTITLE2=Dead Wrong
TTITLE3=Hope You Niggas Sleep
TTITLE4=Dangerous MCs
TTITLE5=Biggie
TTITLE6=Niggas
TTITLE7=Big Booty Hoes
TTITLE8=Would You Die for Me
TTITLE9=Come on
TTITLE10=Rap Phenomenon
TTITLE11=Let Me Get Down
TTITLE12=Tonight
TTITLE13=If I Should Die Before I Wake
TTITLE14=Who Shot Ya
TTITLE15=Can I Get a Witcha
TTITLE16=I Really Want to Show You
TTITLE17=Ms. Wallace
EXTD=
EXTT0=
EXTT1=
EXTT2=
EXTT3=
EXTT4=
EXTT5=
EXTT6=
EXTT7=
EXTT8=
EXTT9=
EXTT10=
EXTT11=
EXTT12=
EXTT13=
EXTT14=
EXTT15=
EXTT16=
EXTT17=
PLAYORDER=
